<svg version="1.1" viewBox="0 0 640 400" xmlns="http://www.w3.org/2000/svg">
    <g viewBox="0 0 640 400" matcher="0.4780748302878799">
        <g matcher="0.4780748302878799">
            <g matcher="0.4780748302878799">
                <g matcher="0.4780748302878799">
                    <svg viewBox="0 0 640 400" data-background-color="#f9f9f9" preserveAspectRatio="xMidYMid meet" height="400" width="640" xmlns="http://www.w3.org/2000/svg">
                        <rect width="640" height="400" x="0" y="0" opacity="1" fill="#f9f9f9" id="background" />
                        <g id="tight-bounds" transform="matrix(1,0,0,1,122.24000000000001,140.18899302383005)">
                            <svg viewBox="0 0 395.52 119.62201395233987" height="119.62201395233987" width="395.52">
                                <g>
                                    <svg viewBox="0 0 395.52 119.62201395233987" height="119.62201395233987" width="395.52">
                                        <g transform="matrix(1,0,0,1,0,72.69257485509459)">
                                            <svg viewBox="0 0 395.52 46.92943909724527" height="46.92943909724527" width="395.52">
                                                <g id="textblocktransform">
                                                    <svg viewBox="0 0 395.52 46.92943909724527" height="46.92943909724527" width="395.52" id="textblock">
                                                        <g>
                                                            <svg viewBox="0 0 395.52 46.92943909724527" height="46.92943909724527" width="395.52">
                                                                <g transform="matrix(1,0,0,1,0,0)">
                                                                    <svg width="395.52" viewBox="3.25 -35.349998474121094 301.2699890136719 35.75" height="46.92943909724527" data-palette-color="#030303">
                                                                        <path d="M14.75 0L14.75 0 3.25 0 3.25-33.7 14.85-33.7Q22.45-33.7 27.3-29.03 32.15-24.35 32.15-17.4L32.15-17.4Q32.15-9.3 27.38-4.65 22.6 0 14.75 0ZM14.6-27.35L14.6-27.35 11.15-27.35 11.15-6.3 14.65-6.3Q19.3-6.3 21.83-9.2 24.35-12.1 24.35-17.4L24.35-17.4Q24.35-21.9 21.8-24.63 19.25-27.35 14.6-27.35ZM57.05-7.55L57.05-1.45Q54.45 0.25 49.1 0.25L49.1 0.25Q42.85 0.25 39.37-3.38 35.9-7 35.9-12.7L35.9-12.7Q35.9-18.75 39.27-22.18 42.65-25.6 47.6-25.6L47.6-25.6Q52.7-25.6 55.65-22.63 58.6-19.65 58.6-13.75L58.6-13.75Q58.6-12.6 58.2-9.8L58.2-9.8 43.3-9.8Q44.05-7.7 45.9-6.55 47.75-5.4 50.35-5.4L50.35-5.4Q54.2-5.4 57.05-7.55L57.05-7.55ZM47.9-20.05L47.9-20.05Q46.15-20.05 44.8-18.78 43.45-17.5 43-15L43-15 51.8-15 51.8-15.6Q51.45-20.05 47.9-20.05ZM82.75-7.3L82.75-1.2Q79.8 0.4 75.65 0.4L75.65 0.4Q69.95 0.4 66.25-3.23 62.55-6.85 62.55-12.6L62.55-12.6Q62.65-18.3 66.25-22.03 69.84-25.75 76.09-25.75L76.09-25.75Q79.95-25.75 82.75-24.3L82.75-24.3 82.75-18.05Q80.09-19.7 76.84-19.7L76.84-19.7Q73.8-19.7 71.9-17.88 70-16.05 69.95-12.6L69.95-12.6Q70.14-9.25 71.95-7.4 73.75-5.55 76.7-5.55L76.7-5.55Q79.84-5.55 82.75-7.3L82.75-7.3ZM107.14-7.55L107.14-1.45Q104.54 0.25 99.19 0.25L99.19 0.25Q92.94 0.25 89.47-3.38 85.99-7 85.99-12.7L85.99-12.7Q85.99-18.75 89.37-22.18 92.74-25.6 97.69-25.6L97.69-25.6Q102.79-25.6 105.74-22.63 108.69-19.65 108.69-13.75L108.69-13.75Q108.69-12.6 108.29-9.8L108.29-9.8 93.39-9.8Q94.14-7.7 95.99-6.55 97.84-5.4 100.44-5.4L100.44-5.4Q104.29-5.4 107.14-7.55L107.14-7.55ZM97.99-20.05L97.99-20.05Q96.24-20.05 94.89-18.78 93.54-17.5 93.09-15L93.09-15 101.89-15 101.89-15.6Q101.54-20.05 97.99-20.05ZM137.14-16.45L137.14 0 129.84 0 129.84-15.1Q129.84-17.35 128.79-18.53 127.74-19.7 125.84-19.7L125.84-19.7Q123.84-19.7 122.52-18.13 121.19-16.55 121.19-13.4L121.19-13.4 121.19 0 113.89 0 113.89-25.35 121.19-25.35 121.19-21.05Q122.14-23.15 124.12-24.38 126.09-25.6 128.84-25.6L128.84-25.6Q132.74-25.6 134.94-23.28 137.14-20.95 137.14-16.45L137.14-16.45ZM157.69-6.6L157.69-0.55Q155.84 0.25 152.69 0.25L152.69 0.25Q144.04 0.25 144.04-8.4L144.04-8.4 144.04-20 140.39-20 140.39-25.35 144.04-25.35 144.04-31.35 151.34-31.35 151.34-25.35 157.24-25.35 157.24-20 151.34-20 151.34-8.35Q151.34-7 152.11-6.3 152.89-5.6 154.14-5.6L154.14-5.6Q156.14-5.6 157.69-6.6L157.69-6.6ZM193.83-18.85L193.83-12.7 182.68-12.7 182.68 0 174.93 0 174.93-33.7 195.48-33.7 195.48-27.55 182.68-27.55 182.68-18.85 193.83-18.85ZM223.58-12.8L223.58-12.8Q223.58-7.05 220.31-3.33 217.03 0.4 211.18 0.4L211.18 0.4Q205.23 0.4 201.98-3.18 198.73-6.75 198.73-12.35L198.73-12.35Q198.73-18.2 202.13-21.98 205.53-25.75 211.18-25.75L211.18-25.75Q217.08-25.75 220.33-22.1 223.58-18.45 223.58-12.8ZM207.53-17.95Q206.33-15.9 206.33-12.65 206.33-9.4 207.56-7.33 208.78-5.25 211.23-5.25L211.23-5.25Q213.63-5.25 214.81-7.28 215.98-9.3 215.98-12.55L215.98-12.55Q215.98-20 211.13-20L211.13-20Q208.73-20 207.53-17.95ZM251.93-12.8L251.93-12.8Q251.93-7.05 248.65-3.33 245.38 0.4 239.53 0.4L239.53 0.4Q233.58 0.4 230.33-3.18 227.08-6.75 227.08-12.35L227.08-12.35Q227.08-18.2 230.48-21.98 233.88-25.75 239.53-25.75L239.53-25.75Q245.43-25.75 248.68-22.1 251.93-18.45 251.93-12.8ZM235.88-17.95Q234.68-15.9 234.68-12.65 234.68-9.4 235.9-7.33 237.13-5.25 239.58-5.25L239.58-5.25Q241.98-5.25 243.15-7.28 244.33-9.3 244.33-12.55L244.33-12.55Q244.33-20 239.48-20L239.48-20Q237.08-20 235.88-17.95ZM262.83-12.6L262.83-12.6Q262.83-9.55 264.43-7.68 266.03-5.8 268.33-5.8L268.33-5.8Q270.83-5.8 272.38-7.75 273.93-9.7 273.93-12.95L273.93-12.95Q273.93-16.1 272.25-17.85 270.58-19.6 268.28-19.6 265.98-19.6 264.4-17.75 262.83-15.9 262.83-12.6ZM281.23-35.35L281.23 0 273.93 0 273.93-3.95Q271.38 0.3 266.33 0.3L266.33 0.3Q261.38 0.3 258.4-3.55 255.43-7.4 255.43-12.75L255.43-12.75Q255.43-18.75 258.53-22.2 261.63-25.65 266.38-25.65L266.38-25.65Q271.33-25.65 273.93-21.45L273.93-21.45 273.93-35.35 281.23-35.35ZM304.52-7.65L304.52-7.65Q304.52-3.9 301.82-1.85 299.12 0.2 294.67 0.2L294.67 0.2Q290.07 0.2 286.97-1.35L286.97-1.35 286.97-7.85Q290.42-5.45 294.27-5.45L294.27-5.45Q297.02-5.45 297.02-7.2L297.02-7.2Q297.02-7.65 296.77-8.05 296.52-8.45 295.92-8.8 295.32-9.15 294.82-9.38 294.32-9.6 293.37-10 292.42-10.4 291.92-10.65L291.92-10.65Q286.87-13.05 286.87-17.85L286.87-17.85Q286.87-21.55 289.7-23.6 292.52-25.65 296.72-25.65L296.72-25.65Q300.62-25.65 303.22-24.6L303.22-24.6 303.22-18.35Q300.57-19.9 297.02-19.9L297.02-19.9Q295.72-19.9 295.02-19.38 294.32-18.85 294.32-18.05L294.32-18.05Q294.32-17.6 294.57-17.2 294.82-16.8 295.4-16.45 295.97-16.1 296.5-15.83 297.02-15.55 297.95-15.15 298.87-14.75 299.42-14.45L299.42-14.45Q301.72-13.25 303.12-11.68 304.52-10.1 304.52-7.65Z" opacity="1" transform="matrix(1,0,0,1,0,0)" fill="#030303" class="wordmark-text-0" id="text-0" />
                                                                    </svg>
                                                                </g>
                                                            </svg>
                                                        </g>
                                                    </svg>
                                                </g>
                                            </svg>
                                        </g>
                                        <g transform="matrix(1,0,0,1,162.79224961315813,0)">
                                            <svg viewBox="0 0 69.93550077368373 61.613660590773314" height="61.613660590773314" width="69.93550077368373">
                                                <g>
                                                    <svg xmlns="http://www.w3.org/2000/svg" version="1.1" x="0" y="0" viewBox="6.300000190734863 11.5 87.39999389648438 77" style="enable-background:new 0 0 100 100;" xml:space="preserve" height="61.613660590773314" width="69.93550077368373" class="icon-icon-0" data-fill-palette-color="accent" id="icon-0">
                            <path d="M72.3 12.3L71.9 11.5H28.2L6.3 50 28.1 88.5H71.8L93.7 50zM33.3 25.3L9.9 47.7 28.5 14.9zM70.7 14.8L77.1 50.5 36.9 25.8zM35.5 27.3L76.5 52.5 35.5 75.8zM77 54.5L69.8 85.3 37.2 77.2zM33.5 75L9.9 50.5 33.5 27.8zM33.2 77.6L28.6 85.3 11.5 55.1zM35 78.6L66.4 86.5H30.2zM79.3 53.3L90.9 50.8 72.1 84zM90.7 48.9L79.3 51.4 73.4 18.3zM35 24.3L30 13.5H68.2z" fill="#030303" />
                          </svg>
                                                </g>
                                            </svg>
                                        </g>
                                    </svg>
                                </g>
                            </svg>
                            <rect width="395.52" height="119.62201395233987" fill="none" stroke="none" visibility="hidden" />
                        </g>
                    </svg>
                </g>
            </g>
        </g>
    </g>
    <rect width="407.48063692514677" height="58.929446703767155" x="117.25970064823866" y="207.88156647504888" rx="2.5" ry="2.5" fill="transparent" class="logo-element-hover-target" />
    <rect width="81.93548189823866" height="73.61365964408026" x="280.0322590508806" y="135.18900593199606" rx="2.5" ry="2.5" fill="transparent" class="logo-element-hover-target" />
</svg>